<?xml version="1.0" ?>
<svg id="Graphics" style="enable-background:new 0 0 512 512;" version="1.1" viewBox="0 0 512 512" xml:space="preserve"
	 xmlns="http://www.w3.org/2000/svg"><style type="text/css">
	.st0{fill:#E6EAFE;}
	.st1{fill:#FFFFFF;}
	.st2{fill:#231F20;}
	.st3{fill:#042FF8;}
	.st4{fill:#414042;}
	.st5{fill:#58595B;}
	.st6{fill:#CDD5FE;}
</style>
    <g id="Scene_02"><g><g><path class="st0" d="M469.7,278.8c-9.3-8.2-20.9-15-34.1-22.2c-62.7-34.2-118.9-166.4-206.9-123.9c-39.4,19-59,62.2-89.2,91.7     c-35.7,34.9-118.6,69.9-120,127.8c-0.7,30.4,35.7,81.3,68.8,81.3c0,0,335.2,0.2,335.2,0.2c14.1-6.2,28.6-12.6,40-22.9     c21.6-19.4,31.5-52,29.8-80.8C492,306,483.3,290.9,469.7,278.8z"/></g><g><g><path class="st1" d="M92.2,310.7H45.9c-5.5,0-9.9-4.4-9.9-9.9v-46.3c0-5.5,4.4-9.9,9.9-9.9h46.3c5.5,0,9.9,4.4,9.9,9.9v46.3      C102.1,306.2,97.6,310.7,92.2,310.7z"/></g>
        <g><path class="st2" d="M92.2,311.7H45.9c-6,0-10.9-4.9-10.9-10.9v-46.3c0-6,4.9-10.9,10.9-10.9h46.3c6,0,10.9,4.9,10.9,10.9v46.3      C103.1,306.8,98.2,311.7,92.2,311.7z M45.9,245.6c-4.9,0-8.9,4-8.9,8.9v46.3c0,4.9,4,8.9,8.9,8.9h46.3c4.9,0,8.9-4,8.9-8.9      v-46.3c0-4.9-4-8.9-8.9-8.9H45.9z"/></g>
        <g><path class="st3" d="M85.6,275.8c0-0.7-0.6-1.3-1.3-1.3l-2.8,0c-0.5,0-0.9-0.3-1-0.7c-0.1-0.3-0.2-0.5-0.3-0.8      c-0.2-0.4-0.1-0.9,0.2-1.2l2-2c0.5-0.5,0.5-1.3,0-1.8l-3.2-3.2c-0.5-0.5-1.3-0.5-1.8,0l-2,2c-0.3,0.3-0.8,0.4-1.2,0.2      c-0.3-0.1-0.6-0.2-0.8-0.3c-0.4-0.2-0.7-0.6-0.7-1v-2.8c0-0.7-0.6-1.3-1.3-1.3h-4.5c-0.7,0-1.3,0.6-1.3,1.3v2.8      c0,0.5-0.3,0.9-0.7,1c-0.3,0.1-0.5,0.2-0.8,0.3c-0.4,0.2-0.9,0.1-1.2-0.2l-2-2c-0.5-0.5-1.3-0.5-1.8,0l-3.2,3.2      c-0.5,0.5-0.5,1.3,0,1.8l2,2c0.3,0.3,0.4,0.8,0.2,1.2c-0.1,0.3-0.2,0.6-0.3,0.8c-0.2,0.4-0.6,0.7-1,0.7l-2.8,0      c-0.7,0-1.3,0.6-1.3,1.3l0,4.5c0,0.7,0.6,1.3,1.3,1.3l2.8,0c0.5,0,0.9,0.3,1,0.7c0.1,0.3,0.2,0.5,0.3,0.8      c0.2,0.4,0.1,0.9-0.2,1.2l-2,2c-0.5,0.5-0.5,1.3,0,1.8l3.2,3.2c0.5,0.5,1.3,0.5,1.8,0l2-2c0.3-0.3,0.8-0.4,1.2-0.2      c0.3,0.1,0.6,0.2,0.8,0.3c0.4,0.2,0.7,0.6,0.7,1l0,2.8c0,0.7,0.6,1.3,1.3,1.3l4.5,0c0.7,0,1.3-0.6,1.3-1.3l0-2.8      c0-0.5,0.3-0.9,0.7-1c0.3-0.1,0.5-0.2,0.8-0.3c0.4-0.2,0.9-0.1,1.2,0.2l2,2c0.5,0.5,1.3,0.5,1.8,0l3.2-3.2      c0.5-0.5,0.5-1.3,0-1.8l-2-2c-0.3-0.3-0.4-0.8-0.2-1.2c0.3-0.7,0.6-1.5,0.6-1.5l3.5,0c0.7,0,1.3-0.6,1.3-1.3L85.6,275.8z       M66.7,284c-0.4-0.1-0.7-0.3-1-0.5c-0.6-0.4-1.2-0.9-1.6-1.5c-0.2-0.3-0.4-0.6-0.6-0.9c-0.2-0.3-0.3-0.7-0.5-1      c-0.1-0.3-0.2-0.7-0.3-1.1c-0.1-0.7-0.1-1.5,0-2.2c0.8-4,4.9-6.3,8.6-4.8c0.7,0.3,1.3,0.7,1.9,1.2c0.1,0.1,0.3,0.2,0.4,0.4      c0.8,0.8,1.3,1.8,1.6,2.8c0.2,0.9,0.3,1.8,0.1,2.8C74.6,283.2,70.4,285.5,66.7,284z"/></g></g><g><path class="st0" d="M383.9,136.3c-4.5,0-8.1,3.6-8.1,8.1c0,4.5,3.6,8.1,8.1,8.1c4.5,0,8.1-3.6,8.1-8.1     C392,140,388.4,136.3,383.9,136.3z M383.9,149.1c-2.6,0-4.6-2.1-4.6-4.6c0-2.6,2.1-4.6,4.6-4.6c2.6,0,4.6,2.1,4.6,4.6     C388.5,147,386.4,149.1,383.9,149.1z"/></g><g><path class="st0" d="M16.9,197.4c-3.5,0-6.4,2.9-6.4,6.4c0,3.5,2.9,6.4,6.4,6.4s6.4-2.9,6.4-6.4     C23.3,200.3,20.4,197.4,16.9,197.4z M16.9,207.4c-2,0-3.7-1.6-3.7-3.7c0-2,1.6-3.7,3.7-3.7c2,0,3.7,1.6,3.7,3.7     C20.6,205.8,18.9,207.4,16.9,207.4z"/></g><g><path class="st0" d="M455.2,174.8c0,2.7-2.2,4.9-4.9,4.9s-4.9-2.2-4.9-4.9c0-2.7,2.2-4.9,4.9-4.9S455.2,172.1,455.2,174.8z"/></g><g><path class="st0" d="M74.7,229.1c0,1.3-1.1,2.4-2.4,2.4c-1.3,0-2.4-1.1-2.4-2.4s1.1-2.4,2.4-2.4     C73.6,226.7,74.7,227.8,74.7,229.1z"/></g><g><circle class="st0" cx="194.1" cy="130.8" r="4.2"/></g><g><path class="st0" d="M394.3,198.7l-3.1-1.7l1.7-3.1c0.4-0.8,0.1-1.8-0.7-2.2c-0.8-0.4-1.8-0.1-2.2,0.7l-1.7,3.1l-3.1-1.7     c-0.8-0.4-1.8-0.1-2.2,0.7c-0.4,0.8-0.1,1.8,0.7,2.2l3.1,1.7l-1.7,3.1c-0.4,0.8-0.1,1.8,0.7,2.2c0.8,0.4,1.8,0.1,2.2-0.7l1.7-3.1     l3.1,1.7c0.8,0.4,1.8,0.1,2.2-0.7C395.4,200.1,395.1,199.1,394.3,198.7z"/></g><g><path class="st0" d="M61.7,171.1l-3.2-1.7l1.7-3.2c0.4-0.8,0.1-1.8-0.7-2.3c-0.8-0.4-1.8-0.1-2.3,0.7l-1.7,3.2l-3.2-1.7     c-0.8-0.4-1.8-0.1-2.3,0.7c-0.4,0.8-0.1,1.8,0.7,2.3l3.2,1.7l-1.7,3.2c-0.4,0.8-0.1,1.8,0.7,2.3c0.8,0.4,1.8,0.1,2.3-0.7l1.7-3.2     l3.2,1.7c0.8,0.4,1.8,0.1,2.3-0.7C62.8,172.6,62.5,171.6,61.7,171.1z"/></g><g><path class="st0" d="M25.5,409.7l-3.1-1.7l1.7-3.1c0.4-0.8,0.1-1.8-0.7-2.2c-0.8-0.4-1.8-0.1-2.2,0.7l-1.7,3.1l-3.1-1.7     c-0.8-0.4-1.8-0.1-2.2,0.7c-0.4,0.8-0.1,1.8,0.7,2.2l3.1,1.7l-1.7,3.1c-0.4,0.8-0.1,1.8,0.7,2.2c0.8,0.4,1.8,0.1,2.2-0.7l1.7-3.1     l3.1,1.7c0.8,0.4,1.8,0.1,2.2-0.7C26.6,411.1,26.3,410.1,25.5,409.7z"/></g><g><g><path class="st3" d="M235.5,286.6c6.5,0,12.5,3.5,15.8,9.1l36.7,64.5l16.2,3.7c30.7,11.7,20.3,69.7,20.3,69.7l-222.7-0.4      c-15-0.3-28.7-8.9-35-22.4c-21.8-46.9,63.6-110.5,80-122.1c1.7-1.2,3.8-1.9,5.9-1.9L235.5,286.6z"/></g>
        <g><path class="st2" d="M143.9,290.7c-3.8,2.7-9.2,6.8-15.6,12c14.2,10.7,36.7,22.2,61.4,15.6C189.8,318.2,153.6,312.8,143.9,290.7      z"/></g>
        <g><path class="st2" d="M228,318.4c11.8-0.4,22-4.1,30.8-9.4l-5.8-10.2C247,312.2,228,318.4,228,318.4z"/></g>
        <g><path class="st3" d="M243.8,267.5c-24.7-28.9-61.2-23.3-81.3-17.3c-13.7,4.1-22.7,17.5-20.8,31.6c3.9,29.1,48.9,36.6,48.9,36.6      H228C228,318.4,275.3,304.4,243.8,267.5z"/></g>
        <g><path class="st2" d="M228,319.4c-0.4,0-0.8-0.3-1-0.7c-0.2-0.5,0.1-1.1,0.7-1.2c0.2-0.1,20.8-6.3,25.1-20.9      c2.5-8.4-0.8-17.9-9.8-28.5c-24.3-28.5-60.7-22.8-80.3-17c-13.3,4-21.9,17.1-20.1,30.5c3.8,28,47.7,35.7,48.1,35.7      c0.5,0.1,0.9,0.6,0.8,1.2c-0.1,0.5-0.6,0.9-1.2,0.8c-1.9-0.3-45.8-8-49.8-37.4c-1.9-14.4,7.3-28.4,21.5-32.7      c20-6,57.3-11.8,82.4,17.6c9.5,11.1,12.9,21.3,10.2,30.3c-4.6,15.6-25.6,21.9-26.5,22.2C228.2,319.4,228.1,319.4,228,319.4z"/></g>
        <g><ellipse class="st1" cx="173.8" cy="234.7" rx="8.1" ry="8.1" transform="matrix(0.7071 -0.7071 0.7071 0.7071 -115.0701 191.6596)"/></g>
        <g><path class="st2" d="M173.8,243.8c-5,0-9.1-4.1-9.1-9.1c0-5,4.1-9.1,9.1-9.1c5,0,9.1,4.1,9.1,9.1      C182.9,239.7,178.8,243.8,173.8,243.8z M173.8,227.6c-3.9,0-7.1,3.2-7.1,7.1c0,3.9,3.2,7.1,7.1,7.1c3.9,0,7.1-3.2,7.1-7.1      C180.9,230.8,177.7,227.6,173.8,227.6z"/></g>
        <g><path class="st1" d="M176.4,248.2v31.1c0,4.4,2.3,8.5,6,10.7l33.1,20.1l12.5-23.7v-29.5L176.4,248.2z"/></g>
        <g><path class="st2" d="M215.9,311.6l-32.7-19.9c-4.9-3-7.9-8.3-7.9-14v-29.5c0-0.6,0.4-1,1-1c0.6,0,1,0.4,1,1v29.5      c0,5,2.6,9.7,6.9,12.3l30.8,18.8l9.7-18.4c1.4-2.7,2.2-5.8,2.2-8.8v-5.4c0-0.6,0.4-1,1-1c0.6,0,1,0.4,1,1v5.4      c0,3.4-0.8,6.8-2.4,9.8L215.9,311.6z"/></g>
        <g><path class="st1" d="M215.3,279.6L215.3,279.6c-20.4,0-37.4-15.5-39.3-35.8l-3.9-41.7c0,0,70-18.1,73.9,0      c3.1,14.4-0.7,38.6-4.4,56.1C239,270.7,228,279.6,215.3,279.6z"/></g>
        <g><path class="st2" d="M215.3,280.6c-21.5,0-38.9-16.3-40.4-38c0-0.6,0.4-1,0.9-1.1c0.6,0,1,0.4,1.1,0.9      c1.5,20.6,18,36.1,38.4,36.1c12.2,0,22.8-8.7,25.3-20.6c2.1-9.8,4.1-24.2,5-34.9c0-0.6,0.5-1,1.1-0.9c0.6,0,1,0.5,0.9,1.1      c-0.9,10.8-3,25.3-5.1,35.2C239.9,271.3,228.4,280.6,215.3,280.6z"/></g>
        <g><path class="st4" d="M200.4,214.7c-2.3-0.9-4.6-1.8-6.9-2.8c-1.8,9-6.4,17.4-13.1,23.9c-0.8,0.8-1.9,1.6-3,1.3      c-0.7-0.2-1.2-0.8-1.6-1.4c-1.3-1.8-2.5-3.5-3.8-5.3c-1.5-2.1-3.3-3.2-5.1-5c-4.5-4.6-7.7-10.7-7.9-17.1      c-0.2-6.4,2.9-13,8.6-16.2c5.6-3.3,13.6-2.5,17.9,2.3c6.3-16.1,24.6-26.7,42-24.5c10.7,1.3,20.5,7.5,26.9,15.9      c2.4,3.2,4.3,6.7,5.6,10.4c1.5,4.2,3.2,9.3,1.4,13.7c-2.8,7-8.6,12.3-16,13.9c-7.2,1.6-14.8,0.2-21.9-1.6      C215.6,220,207.9,217.6,200.4,214.7z"/></g>
        <g><path class="st2" d="M324.4,434.7c-0.1,0-0.1,0-0.2,0c-0.5-0.1-0.9-0.6-0.8-1.2c0.1-0.6,9.9-57.3-19.6-68.6l-16.6-3.8L252,299.8      c-0.3-0.5-0.1-1.1,0.4-1.4c0.5-0.3,1.1-0.1,1.4,0.4l34.8,60.6l15.9,3.6c31.1,11.9,21.3,68.4,20.9,70.8      C325.3,434.3,324.9,434.7,324.4,434.7z"/></g>
        <g><path class="st2" d="M135.8,434.7c-14.3,0-27-0.2-34.2-0.4c-15.8-0.4-29.9-9.4-35.9-23c-9.1-20.6,1.5-48.1,30.6-79.7      c21.9-23.7,46.7-41.5,47-41.7c0.4-0.3,1.1-0.2,1.4,0.2c0.3,0.4,0.2,1.1-0.2,1.4c-1,0.7-98.2,70.9-76.9,118.9      c5.7,12.9,19.1,21.5,34.2,21.8c43.5,1,93.6,0.3,103.9-4.3c13.5-6.2,9.7-30.4,8.8-35.2c-0.4-2.3-2.4-4-4.7-4.1l-76.1-7.4      c-0.5-0.1-1-0.5-0.9-1.1c0.1-0.5,0.5-1,1.1-0.9l76,7.4c3.2,0.2,5.9,2.5,6.5,5.7c1.3,7.1,4.6,30.8-10,37.4      C197.6,433.8,163.8,434.7,135.8,434.7z"/></g>
        <g><path class="st1" d="M210.3,397.1l26.3,1.4l29.2,15.4c1.5,0.8,2.1,2.6,1.3,4.1l0,0c-0.7,1.5-2.4,2.1-3.9,1.5l-19-7.7      c-0.3-0.1-0.6,0.3-0.3,0.5l19.7,13.3c1.4,0.9,1.7,2.8,0.8,4.2l0,0c-0.9,1.3-2.6,1.6-4,0.8l-22.2-13.4c-0.2-0.1-0.4,0.2-0.3,0.3      l8.6,7.9c1.9,1.8,1.1,5-1.5,5.6l0,0c-0.8,0.2-1.7,0-2.4-0.4l-9.1-5.4l-23.9,0.2c-7.8,0-14.2-6.3-14.2-14.2v0      C195.5,403.1,202.2,396.7,210.3,397.1z"/></g>
        <g><path class="st2" d="M244.4,432.1c-0.8,0-1.5-0.2-2.2-0.6l-8.8-5.3l-23.6,0.2c-4.1,0.1-7.9-1.5-10.8-4.4      c-2.9-2.9-4.5-6.7-4.5-10.7c0-4.2,1.7-8.1,4.7-10.9c3-2.9,7-4.4,11.1-4.2l0,0l26.5,1.4l29.4,15.5c2,1,2.7,3.4,1.8,5.4      c-0.9,1.9-3.2,2.8-5.2,2l-12.7-5.2l14,9.5c0.9,0.6,1.5,1.5,1.7,2.6c0.2,1.1,0,2.1-0.7,3c-1.2,1.7-3.5,2.2-5.3,1.1l-15.5-9.3      l2.8,2.6c1.2,1.1,1.7,2.7,1.2,4.2c-0.4,1.5-1.6,2.7-3.2,3.1C245,432,244.7,432.1,244.4,432.1z M233.9,424.2l9.3,5.6      c0.5,0.3,1.1,0.4,1.6,0.3c0.8-0.2,1.5-0.8,1.7-1.6c0.2-0.8,0-1.7-0.7-2.2l-8.6-7.9c-0.5-0.4-0.5-1.1-0.2-1.6      c0.4-0.5,1.1-0.6,1.6-0.3l22.2,13.4c0.9,0.5,2,0.3,2.6-0.6c0.3-0.4,0.4-1,0.3-1.5c-0.1-0.5-0.4-1-0.8-1.3l-19.7-13.3      c-0.5-0.4-0.7-1.1-0.4-1.7c0.3-0.6,1-0.8,1.6-0.6l19,7.7c1,0.4,2.2,0,2.6-1c0.5-1,0.1-2.2-0.9-2.7l-29-15.3l-26.1-1.4      c-3.6-0.2-7,1.1-9.7,3.6c-2.6,2.5-4.1,5.9-4.1,9.5c0,3.5,1.4,6.8,3.9,9.3c2.5,2.5,5.8,3.8,9.3,3.8c0,0,0.1,0,0.1,0L233.9,424.2z      "/></g>
        <g><path class="st2" d="M187.9,409C187.9,409,187.9,409,187.9,409c-0.6,0-1-0.5-1-1c0.3-6.1,3.9-11.5,9.4-14.1      c0.5-0.2,1.1,0,1.3,0.5c0.2,0.5,0,1.1-0.5,1.3c-4.9,2.3-8,7-8.3,12.4C188.9,408.6,188.5,409,187.9,409z"/></g>
        <g><path class="st2" d="M145.7,377.5C145.7,377.5,145.7,377.5,145.7,377.5c-0.6,0-1-0.5-1-1c0.3-7-3.8-9.7-3.9-9.8      c-0.5-0.3-0.6-0.9-0.3-1.4c0.3-0.5,0.9-0.6,1.4-0.3c0.2,0.1,5.1,3.4,4.8,11.5C146.7,377.1,146.3,377.5,145.7,377.5z"/></g>
        <g><path class="st2" d="M263.8,387c0,0-0.1,0-0.1,0c-0.5-0.1-0.9-0.6-0.9-1.1c2.8-22.5,22.1-23.1,22.3-23.1c0.5,0,1,0.4,1,1      c0,0.6-0.4,1-1,1c-0.7,0-17.8,0.6-20.3,21.3C264.8,386.6,264.3,387,263.8,387z"/></g>
        <g><path class="st3" d="M279,395c0,0-0.1,0-0.1,0c-0.5-0.1-0.9-0.6-0.9-1.1c2.2-18,17.7-18.4,17.8-18.4c0.6,0,1,0.4,1,1      c0,0.6-0.4,1-1,1c-0.6,0-13.9,0.5-15.9,16.6C279.9,394.7,279.5,395,279,395z"/></g>
        <g><path class="st3" d="M209.6,358.4c0,0-0.1,0-0.1,0c-1.1-0.1-1.9-1-1.9-2.1c1.9-29.8-10.4-40.6-10.5-40.7c-0.8-0.7-1-2-0.2-2.8      c0.7-0.8,2-1,2.8-0.3c0.6,0.5,14,12,12,44C211.5,357.6,210.6,358.4,209.6,358.4z"/></g>
        <g><path class="st3" d="M219.9,358.4c-1,0-1.9-0.8-2-1.8c-4-34.6,4-43.2,4.9-44c0.8-0.8,2.1-0.7,2.8,0.1c0.7,0.8,0.7,2-0.1,2.8      c-0.2,0.2-7.4,8.3-3.7,40.7c0.1,1.1-0.7,2.1-1.8,2.2C220,358.4,219.9,358.4,219.9,358.4z"/></g>
        <g><path class="st2" d="M224.4,257.3c-0.1,0-0.3,0-0.4-0.1l-4.2-1.3c-0.5-0.2-0.8-0.7-0.7-1.2c0.2-0.5,0.7-0.8,1.2-0.7l3.5,1.1      l-0.6-13.6c0-0.6,0.4-1,1-1c0.5,0,1,0.4,1,1l0.6,14.3c0,0.5-0.2,1-0.6,1.3C225.1,257.2,224.7,257.3,224.4,257.3z M223.9,255.8      L223.9,255.8L223.9,255.8z"/></g>
        <g><path class="st2" d="M217.7,265.4c-1,0-1.9-0.2-2.8-0.5c-3.2-1.3-4.5-4.5-4.6-4.6c-0.2-0.5,0-1.1,0.6-1.3c0.5-0.2,1.1,0,1.3,0.6      c0,0,1.1,2.6,3.5,3.5c1.6,0.6,3.5,0.5,5.6-0.5c0.5-0.2,1.1,0,1.3,0.5c0.2,0.5,0,1.1-0.5,1.3      C220.6,265.1,219.1,265.4,217.7,265.4z"/></g>
        <g><path class="st2" d="M237.2,233.3c-0.2,0-0.3,0-0.5-0.1c-4.1-2.4-7.7-0.1-7.9,0c-0.5,0.3-1.1,0.2-1.4-0.3      c-0.3-0.5-0.2-1.1,0.3-1.4c0.2-0.1,4.8-3,10,0c0.5,0.3,0.6,0.9,0.4,1.4C237.9,233.2,237.6,233.3,237.2,233.3z"/></g>
        <g><path class="st2" d="M203.4,232.7c-0.3,0-0.6-0.1-0.8-0.4c-0.3-0.5-0.2-1.1,0.2-1.4c0.2-0.1,4.7-3.2,9.9-0.4      c0.5,0.3,0.7,0.9,0.4,1.4c-0.3,0.5-0.9,0.7-1.4,0.4c-4.2-2.2-7.7,0.2-7.9,0.3C203.8,232.7,203.6,232.7,203.4,232.7z"/></g>
        <g><path class="st2" d="M234.7,240c0,1.2-0.8,2.3-1.9,2.3c-1,0-1.9-1-1.9-2.3c0-1.2,0.8-2.3,1.9-2.3      C233.9,237.7,234.7,238.7,234.7,240z"/></g>
        <g><path class="st2" d="M211.5,240c0,1.2-0.8,2.3-1.9,2.3c-1,0-1.9-1-1.9-2.3c0-1.2,0.8-2.3,1.9-2.3      C210.7,237.7,211.5,238.7,211.5,240z"/></g>
        <g><g><path class="st2" d="M305.8,434.4h-88.3c-7.4,0-13.4-6-13.4-13.4v0h101.7V434.4z"/></g>
            <g><path class="st4" d="M412.5,434.4H262.1l31.3-82.8c2.8-7.5,10-12.5,18.1-12.5h121.9c7.3,0,12.4,7.3,9.8,14.2L412.5,434.4z"/></g>
            <g><ellipse class="st5" cx="354.5" cy="388.4" rx="8.7" ry="8.7" transform="matrix(8.448844e-02 -0.9964 0.9964 8.448844e-02 -62.4517 708.7549)"/></g></g>
        <g><path class="st2" d="M211.5,260.3c0,0-1.7,7,3.7,8.4c5.4,1.3,5.5-4.8,5.5-4.8S214.2,267.2,211.5,260.3z"/></g></g><g
            id="XMLID_966_"><g id="XMLID_970_"><path class="st3" d="M437.8,250.8h-95.4c-3.2,0-5-2.8-3.8-5.9l10.8-29.2c0.9-2.5,3.5-4.3,6-4.3h95.4c3.2,0,5,2.8,3.8,5.9      l-10.8,29.2C442.9,249,440.4,250.8,437.8,250.8z"/></g>
        <g id="XMLID_1035_"><g id="XMLID_1036_"><path class="st1" d="M370.9,220.1l-0.7,0c-0.9,0-1.6,0.4-1.9,1.2l-2.5,6.7c-0.4,1.1-1.1,2-2.1,2.5c0.6,0.5,0.7,1.3,0.3,2.5       l-2.6,7c-0.3,0.7,0.3,1.1,1.7,1.1l-1.5,3.9h-1.8c-3.2,0-4.2-1.5-3.1-4.6l2.4-6.6c0.3-0.9,0.2-1.3-0.2-1.3h-1.5l1.5-3.9h1.5       c0.5,0,0.9-0.4,1.2-1.3l2.4-6.4c1.1-3.1,3.3-4.6,6.5-4.6h1.8L370.9,220.1z"/></g>
            <g id="XMLID_1038_"><path class="st1" d="M367.8,239.9c-0.3-0.5-0.4-1.2-0.1-2c0.3-0.8,0.8-1.5,1.6-2c0.7-0.5,1.5-0.8,2.3-0.8       c0.8,0,1.4,0.3,1.7,0.8c0.3,0.5,0.4,1.2,0.1,2c-0.3,0.8-0.8,1.5-1.6,2c-0.7,0.5-1.5,0.8-2.3,0.8       C368.7,240.7,368.1,240.4,367.8,239.9z"/></g>
            <g id="XMLID_1040_"><path class="st1" d="M377,239.9c-0.3-0.5-0.4-1.2-0.1-2c0.3-0.8,0.8-1.5,1.6-2c0.7-0.5,1.5-0.8,2.3-0.8c0.8,0,1.4,0.3,1.7,0.8       c0.3,0.5,0.4,1.2,0.1,2c-0.3,0.8-0.8,1.5-1.6,2c-0.7,0.5-1.5,0.8-2.3,0.8C377.9,240.7,377.3,240.4,377,239.9z"/></g>
            <g id="XMLID_1042_"><path class="st1" d="M386.2,239.9c-0.3-0.5-0.4-1.2-0.1-2c0.3-0.8,0.8-1.5,1.6-2c0.7-0.5,1.5-0.8,2.3-0.8       c0.8,0,1.4,0.3,1.7,0.8c0.3,0.5,0.4,1.2,0.1,2c-0.3,0.8-0.8,1.5-1.6,2c-0.7,0.5-1.5,0.8-2.3,0.8       C387.1,240.7,386.5,240.4,386.2,239.9z"/></g>
            <g id="XMLID_97_"><path class="st1" d="M395.4,239.9c-0.3-0.5-0.4-1.2-0.1-2c0.3-0.8,0.8-1.5,1.6-2c0.7-0.5,1.5-0.8,2.3-0.8       c0.8,0,1.4,0.3,1.7,0.8c0.3,0.5,0.4,1.2,0.1,2c-0.3,0.8-0.8,1.5-1.6,2c-0.7,0.5-1.5,0.8-2.3,0.8       C396.3,240.7,395.7,240.4,395.4,239.9z"/></g>
            <g id="XMLID_94_"><path class="st1" d="M404.6,239.9c-0.3-0.5-0.4-1.2-0.1-2c0.3-0.8,0.8-1.5,1.6-2c0.7-0.5,1.5-0.8,2.3-0.8       c0.8,0,1.4,0.3,1.7,0.8c0.3,0.5,0.4,1.2,0.1,2c-0.3,0.8-0.8,1.5-1.6,2c-0.7,0.5-1.5,0.8-2.3,0.8       C405.5,240.7,405,240.4,404.6,239.9z"/></g>
            <g id="XMLID_1048_"><path class="st1" d="M413.8,239.9c-0.3-0.5-0.4-1.2-0.1-2c0.3-0.8,0.8-1.5,1.6-2c0.7-0.5,1.5-0.8,2.3-0.8       c0.8,0,1.4,0.3,1.7,0.8c0.3,0.5,0.4,1.2,0.1,2c-0.3,0.8-0.8,1.5-1.6,2c-0.7,0.5-1.5,0.8-2.3,0.8       C414.7,240.7,414.2,240.4,413.8,239.9z"/></g>
            <g id="XMLID_1050_"><path class="st1" d="M421.6,241l0.7,0c0.9,0,1.6-0.4,1.9-1.2l2.5-6.7c0.4-1.1,1.1-2,2.1-2.5c-0.6-0.5-0.7-1.3-0.3-2.5l2.6-7       c0.3-0.7-0.3-1.1-1.7-1.1l1.5-3.9h1.8c3.2,0,4.2,1.5,3.1,4.6l-2.4,6.6c-0.3,0.9-0.2,1.3,0.2,1.3h1.5l-1.5,3.9H432       c-0.5,0-0.9,0.4-1.2,1.3l-2.4,6.4c-1.1,3.1-3.3,4.6-6.5,4.6h-1.8L421.6,241z"/></g></g></g><g><g><path class="st4" d="M414.5,268h-82.8c-0.8,0-1.3-0.8-1.1-1.5l1.7-4.7c0.2-0.5,0.6-0.8,1.1-0.8h82.8c0.8,0,1.3,0.8,1.1,1.5      l-1.7,4.7C415.4,267.7,415,268,414.5,268z"/></g>
        <g><path class="st4" d="M374.2,281.1h-36.6c-0.8,0-1.3-0.8-1.1-1.5l1.7-4.7c0.2-0.5,0.6-0.8,1.1-0.8h36.6c0.8,0,1.3,0.8,1.1,1.5      l-1.7,4.7C375.1,280.8,374.7,281.1,374.2,281.1z"/></g>
        <g><path class="st3" d="M345.5,294.2h-23.3c-0.8,0-1.3-0.8-1.1-1.5l1.7-4.7c0.2-0.5,0.6-0.8,1.1-0.8h23.3c0.8,0,1.3,0.8,1.1,1.5      l-1.7,4.7C346.4,293.9,346,294.2,345.5,294.2z"/></g>
        <g><path class="st4" d="M358.1,294.2H423c0.5,0,0.9-0.3,1.1-0.8l1.7-4.7c0.3-0.7-0.3-1.5-1.1-1.5h-64.8c-0.5,0-0.9,0.3-1.1,0.8      l-1.7,4.7C356.8,293.4,357.3,294.2,358.1,294.2z"/></g>
        <g><path class="st4" d="M360.7,307.3h-32.7c-0.8,0-1.3-0.8-1.1-1.5l1.7-4.7c0.2-0.5,0.6-0.8,1.1-0.8h32.7c0.8,0,1.3,0.8,1.1,1.5      l-1.7,4.7C361.6,307,361.2,307.3,360.7,307.3z"/></g>
        <g><path class="st3" d="M369.9,307.3h21.2c0.5,0,0.9-0.3,1.1-0.8l1.7-4.7c0.3-0.7-0.3-1.5-1.1-1.5h-21.2c-0.5,0-0.9,0.3-1.1,0.8      l-1.7,4.7C368.6,306.5,369.2,307.3,369.9,307.3z"/></g>
        <g><path class="st3" d="M346.2,320.4h-33.5c-0.8,0-1.3-0.8-1.1-1.5l1.7-4.7c0.2-0.5,0.6-0.8,1.1-0.8h33.5c0.8,0,1.3,0.8,1.1,1.5      l-1.7,4.7C347.1,320.1,346.6,320.4,346.2,320.4z"/></g>
        <g><path class="st4" d="M354.4,320.4h79.9c0.5,0,0.9-0.3,1.1-0.8l1.7-4.7c0.3-0.7-0.3-1.5-1.1-1.5h-79.9c-0.5,0-0.9,0.3-1.1,0.8      l-1.7,4.7C353,319.6,353.6,320.4,354.4,320.4z"/></g>
        <g><path class="st3" d="M382.9,281.1h10.9c0.5,0,0.9-0.3,1.1-0.8l1.7-4.7c0.3-0.7-0.3-1.5-1.1-1.5h-10.9c-0.5,0-0.9,0.3-1.1,0.8      l-1.7,4.7C381.5,280.3,382.1,281.1,382.9,281.1z"/></g>
        <g><path class="st4" d="M423.8,268h19.8c0.5,0,0.9-0.3,1.1-0.8l1.7-4.7c0.3-0.7-0.3-1.5-1.1-1.5h-19.8c-0.5,0-0.9,0.3-1.1,0.8      l-1.7,4.7C422.5,267.2,423.1,268,423.8,268z"/></g></g><g
            id="XMLID_544_"><g id="XMLID_564_"><path class="st2" d="M457.1,434.7h-12.5c-7.5,0-13.6-6.1-13.6-13.6v-28.8h39.7v28.8C470.7,428.6,464.6,434.7,457.1,434.7z       M433,394.3v26.8c0,6.4,5.2,11.6,11.6,11.6h12.5c6.4,0,11.6-5.2,11.6-11.6v-26.8H433z"/></g>
        <g id="XMLID_100_"><path class="st1" d="M444.6,433.7h12.5c6.9,0,12.6-5.6,12.6-12.6v-27.8H432v27.8C432,428,437.6,433.7,444.6,433.7z"/></g>
        <g><path class="st6" d="M456.7,393.3v27.8c0,6.9-5.6,12.6-12.6,12.6h8c6.9,0,12.6-5.6,12.6-12.6v-27.8H456.7z"/></g>
        <g id="XMLID_553_"><path class="st2" d="M457.1,434.7h-12.5c-7.5,0-13.6-6.1-13.6-13.6v-28.8h39.7v28.8C470.7,428.6,464.6,434.7,457.1,434.7z       M433,394.3v26.8c0,6.4,5.2,11.6,11.6,11.6h12.5c6.4,0,11.6-5.2,11.6-11.6v-26.8H433z"/></g>
        <g id="XMLID_550_"><path class="st3" d="M445.2,367.9c1-4.9,4.6-9,8.9-11.4c4.3-2.5,9.3-3.5,14.3-3.9c-1,3.7,1,7.5,2.2,11.1c1.4,4.2,1.8,8.8,0.3,13      c-0.9,2.4-2.4,4.5-4.3,6.1c-2,1.6-4.3,2-6.7,2.8c-1.2,0.4-2.4,1.2-3.7,1.3c-1.9,0.1-3.5-1.4-4.5-3c-0.9-1.3-1.5-2.8-2.5-4      c-0.9-1.2-2-2-2.8-3.3C445.1,374,444.6,370.8,445.2,367.9z"/></g>
        <g id="XMLID_547_"><path class="st3" d="M420.2,372.8c0.5-3.9,1.8-7.7,2.6-11.5c0.8-4,1.1-8.1,0.7-12.2c4.5,5.3,12.7,5.3,18.5,9.1      c3.4,2.2,5.9,5.7,7.2,9.5c1.4,4.3,1.5,8.7-0.2,12.9c-0.1,0.2-0.2,0.4-0.2,0.6c-0.5,1.2-1.1,2.5-1.6,3.7      c-0.3,0.6-0.6,1.3-1.2,1.5c-0.3,0.1-0.6,0.1-0.9,0.1c-2.1-0.1-4.1,0.9-6.2,1.2c-1.9,0.3-4,0.3-5.9,0.3      c-3.7-0.1-7.6-1.1-10.1-3.9C420.3,381,419.7,376.7,420.2,372.8z"/></g>
        <g id="XMLID_546_"><path class="st2" d="M455.2,394.3C455.2,394.3,455.2,394.3,455.2,394.3c-0.6,0-1-0.5-1-1.1c0.6-12,2.1-24.4,8.7-34.5      c0.3-0.5,0.9-0.6,1.4-0.3c0.5,0.3,0.6,0.9,0.3,1.4c-6.4,9.7-7.8,21.9-8.4,33.5C456.2,393.8,455.7,394.3,455.2,394.3z"/></g>
        <g id="XMLID_545_"><path class="st2" d="M447.4,394.3c-0.5,0-0.9-0.3-1-0.8c-2.6-11.6-8.7-22.6-17.2-30.9c-0.4-0.4-0.4-1,0-1.4c0.4-0.4,1-0.4,1.4,0      c8.8,8.6,15.1,19.9,17.7,31.9c0.1,0.5-0.2,1.1-0.8,1.2C447.5,394.3,447.5,394.3,447.4,394.3z"/></g></g><g><g id="XMLID_87_"><path class="st1" d="M64.4,433.7h13.9c6.6,0,11.9-5.3,11.9-11.9v-28.5H52.5v28.5C52.5,428.3,57.8,433.7,64.4,433.7z"/></g>
        <g id="XMLID_85_"><path class="st2" d="M78,434.7H64.6c-7.2,0-13.1-5.9-13.1-13.1v-29.2h39.7v29.2C91.2,428.8,85.3,434.7,78,434.7z M53.5,394.3      v27.2c0,6.1,5,11.1,11.1,11.1H78c6.1,0,11.1-5,11.1-11.1v-27.2H53.5z"/></g>
        <g><path class="st2" d="M52.5,414.5h-4c-3.6,0-6.4-2.9-6.4-6.4v-1c0-3.6,2.9-6.4,6.4-6.4h4c0.6,0,1,0.4,1,1c0,0.6-0.4,1-1,1h-4      c-2.4,0-4.4,2-4.4,4.4v1c0,2.4,2,4.4,4.4,4.4h4c0.6,0,1,0.4,1,1C53.5,414,53.1,414.5,52.5,414.5z"/></g>
        <g><path class="st2" d="M85.1,418.3c-0.6,0-1-0.4-1-1v-18.1c0-0.6,0.4-1,1-1c0.6,0,1,0.4,1,1v18.1      C86.1,417.9,85.6,418.3,85.1,418.3z"/></g></g><g
            id="XMLID_69_"><g id="XMLID_80_"><g id="XMLID_81_"><path class="st4" d="M149.7,208.8l-2.5-13.8c2.2-4.9,3.4-10.4,3.1-16.2c-0.8-18.9-16.3-34.1-35.2-34.6       c-20.7-0.5-37.5,16.4-36.9,37.1c0.5,18.5,15.3,33.8,33.9,34.9c7.9,0.5,15.2-1.6,21.3-5.5l12.1,2.2       C147.9,213.5,150.1,211.3,149.7,208.8z"/></g></g></g><g><g><path class="st1" d="M104.3,186.8c-0.4,0-0.8-0.1-1.1-0.4l-6-6l6-6c0.6-0.6,1.5-0.6,2.1,0c0.6,0.6,0.6,1.5,0,2.1l-3.9,3.9      l3.9,3.9c0.6,0.6,0.6,1.5,0,2.1C105.1,186.6,104.7,186.8,104.3,186.8z"/></g>
        <g><path class="st1" d="M122.2,186.8c-0.4,0-0.8-0.1-1.1-0.4c-0.6-0.6-0.6-1.5,0-2.1l3.9-3.9l-3.9-3.9c-0.6-0.6-0.6-1.5,0-2.1      c0.6-0.6,1.5-0.6,2.1,0l6,6l-6,6C122.9,186.6,122.5,186.8,122.2,186.8z"/></g>
        <g><path class="st1" d="M116.9,190.7c-0.6,0-1.2-0.4-1.4-0.9l-7-17.7c-0.3-0.8,0.1-1.6,0.8-1.9c0.8-0.3,1.6,0.1,1.9,0.8l7,17.7      c0.3,0.8-0.1,1.6-0.8,1.9C117.2,190.6,117,190.7,116.9,190.7z"/></g></g><g><path class="st3" d="M290.9,298.8c0,1.1-0.9,2-2,2c-1.1,0-2-0.9-2-2c0-1.1,0.9-2,2-2C290,296.8,290.9,297.7,290.9,298.8z"/></g><g><path class="st3" d="M314.8,250.1c0,1.7-1.4,3-3,3c-1.7,0-3-1.4-3-3c0-1.7,1.4-3,3-3C313.5,247.1,314.8,248.5,314.8,250.1z"/></g><g><circle class="st3" cx="267.4" cy="239.3" r="4.4"/></g><g><path class="st2" d="M500.5,434.7H12.3c-0.6,0-1-0.4-1-1c0-0.6,0.4-1,1-1h488.2c0.6,0,1,0.4,1,1     C501.5,434.2,501,434.7,500.5,434.7z"/></g></g></g></svg>
